<?xml version="1.0" encoding="UTF-8"?>
<!-- Generator: Adobe Illustrator 16.0.0, SVG Export Plug-In . SVG Version: 6.00 Build 0)  -->
<!DOCTYPE svg PUBLIC "-//W3C//DTD SVG 1.1//EN" "http://www.w3.org/Graphics/SVG/1.1/DTD/svg11.dtd">
<svg xmlns:xlink="http://www.w3.org/1999/xlink" version="1.1" id="Layer_1" xmlns="http://www.w3.org/2000/svg" x="0px"
     y="0px" width="280px" height="56px" viewBox="0 0 280 56" enable-background="new 0 0 280 56" xml:space="preserve">
<g>
	<path fill="#1E5BAA"
          d="M39.924,25.611c-0.427,0.128-0.917,0.251-1.472,0.368c-0.555,0.117-1.136,0.218-1.744,0.304   c-0.608,0.085-1.227,0.155-1.856,0.208c-0.629,0.053-1.232,0.08-1.808,0.08c-1.387,0-2.624-0.203-3.712-0.608   c-1.088-0.405-2.005-0.987-2.752-1.744c-0.747-0.757-1.318-1.674-1.712-2.752c-0.395-1.077-0.592-2.288-0.592-3.632   c0-1.365,0.17-2.597,0.512-3.696c0.341-1.098,0.832-2.032,1.472-2.8c0.64-0.768,1.424-1.354,2.352-1.76   c0.928-0.405,1.989-0.608,3.184-0.608c0.661,0,1.253,0.064,1.776,0.192c0.522,0.128,1.051,0.31,1.584,0.544V2.091l4.768-0.768   V25.611z M29.14,17.611c0,1.472,0.33,2.656,0.992,3.552c0.661,0.896,1.643,1.344,2.944,1.344c0.426,0,0.821-0.016,1.184-0.048   c0.363-0.032,0.661-0.069,0.896-0.112v-8.672c-0.299-0.192-0.688-0.352-1.168-0.48s-0.965-0.192-1.456-0.192   C30.271,13.003,29.14,14.539,29.14,17.611z"/>
    <path fill="#1E5BAA"
          d="M43.604,17.867c0-1.493,0.229-2.8,0.688-3.92c0.458-1.12,1.061-2.053,1.808-2.8   c0.747-0.747,1.605-1.312,2.576-1.696c0.97-0.384,1.968-0.576,2.992-0.576c2.389,0,4.277,0.731,5.664,2.192   c1.387,1.461,2.08,3.611,2.08,6.448c0,0.278-0.011,0.582-0.032,0.912c-0.021,0.331-0.043,0.624-0.064,0.88H48.5   c0.106,0.981,0.565,1.76,1.376,2.336c0.811,0.576,1.898,0.864,3.264,0.864c0.875,0,1.733-0.08,2.576-0.24   c0.843-0.16,1.531-0.357,2.064-0.592l0.64,3.872c-0.256,0.128-0.597,0.256-1.024,0.384s-0.901,0.24-1.424,0.336   c-0.523,0.096-1.083,0.176-1.68,0.24c-0.598,0.064-1.195,0.096-1.792,0.096c-1.515,0-2.832-0.224-3.952-0.672   c-1.12-0.448-2.048-1.061-2.784-1.84c-0.736-0.778-1.28-1.701-1.632-2.768C43.78,20.256,43.604,19.104,43.604,17.867z    M54.804,16.043c-0.021-0.405-0.091-0.8-0.208-1.184c-0.118-0.384-0.299-0.725-0.544-1.024c-0.246-0.299-0.555-0.544-0.928-0.736   c-0.374-0.192-0.837-0.288-1.392-0.288c-0.533,0-0.992,0.091-1.376,0.272c-0.384,0.181-0.704,0.421-0.96,0.72   c-0.256,0.299-0.454,0.646-0.592,1.04c-0.139,0.395-0.24,0.795-0.304,1.2H54.804z"/>
    <path fill="#1E5BAA"
          d="M67.691,26.155c-1.092-2.133-2.2-4.629-3.324-7.488s-2.189-5.973-3.196-9.344h5.056   c0.214,0.832,0.466,1.733,0.755,2.704c0.289,0.971,0.589,1.952,0.9,2.944c0.31,0.992,0.621,1.958,0.932,2.896   c0.311,0.939,0.617,1.792,0.917,2.56c0.278-0.768,0.578-1.621,0.899-2.56c0.321-0.938,0.637-1.904,0.948-2.896   c0.311-0.992,0.61-1.973,0.899-2.944s0.541-1.872,0.755-2.704h4.931c-1.006,3.371-2.07,6.485-3.193,9.344s-2.23,5.355-3.322,7.488   H67.691z"/>
    <path fill="#1E5BAA"
          d="M79.891,17.867c0-1.493,0.229-2.8,0.688-3.92c0.458-1.12,1.061-2.053,1.808-2.8   c0.747-0.747,1.605-1.312,2.576-1.696c0.97-0.384,1.968-0.576,2.992-0.576c2.389,0,4.277,0.731,5.664,2.192   c1.387,1.461,2.08,3.611,2.08,6.448c0,0.278-0.011,0.582-0.032,0.912c-0.021,0.331-0.043,0.624-0.064,0.88H84.787   c0.106,0.981,0.565,1.76,1.376,2.336c0.811,0.576,1.898,0.864,3.264,0.864c0.875,0,1.733-0.08,2.576-0.24   c0.843-0.16,1.531-0.357,2.064-0.592l0.64,3.872c-0.256,0.128-0.597,0.256-1.024,0.384s-0.901,0.24-1.424,0.336   c-0.523,0.096-1.083,0.176-1.68,0.24c-0.598,0.064-1.195,0.096-1.792,0.096c-1.515,0-2.832-0.224-3.952-0.672   c-1.12-0.448-2.048-1.061-2.784-1.84c-0.736-0.778-1.28-1.701-1.632-2.768C80.067,20.256,79.891,19.104,79.891,17.867z    M91.091,16.043c-0.021-0.405-0.091-0.8-0.208-1.184c-0.118-0.384-0.299-0.725-0.544-1.024c-0.246-0.299-0.555-0.544-0.928-0.736   c-0.374-0.192-0.837-0.288-1.392-0.288c-0.533,0-0.992,0.091-1.376,0.272c-0.384,0.181-0.704,0.421-0.96,0.72   c-0.256,0.299-0.454,0.646-0.592,1.04c-0.139,0.395-0.24,0.795-0.304,1.2H91.091z"/>
    <path fill="#1E5BAA"
          d="M106.099,26.475c-1.387-0.021-2.512-0.171-3.376-0.448c-0.864-0.277-1.547-0.667-2.048-1.168   c-0.501-0.501-0.843-1.109-1.024-1.824c-0.182-0.714-0.272-1.52-0.272-2.416V2.091l4.768-0.768v18.336   c0,0.427,0.032,0.811,0.096,1.152c0.064,0.342,0.187,0.63,0.368,0.864c0.181,0.235,0.442,0.427,0.784,0.576s0.8,0.245,1.376,0.288   L106.099,26.475z"/>
    <path fill="#1E5BAA"
          d="M125.235,17.707c0,1.323-0.192,2.534-0.576,3.632c-0.384,1.099-0.939,2.038-1.664,2.816   c-0.726,0.779-1.595,1.381-2.608,1.808c-1.014,0.426-2.15,0.64-3.408,0.64c-1.237,0-2.363-0.214-3.376-0.64   c-1.014-0.427-1.883-1.029-2.608-1.808c-0.726-0.778-1.291-1.717-1.696-2.816c-0.405-1.099-0.608-2.309-0.608-3.632   c0-1.322,0.208-2.528,0.624-3.616s0.992-2.016,1.728-2.784s1.61-1.365,2.624-1.792c1.013-0.426,2.117-0.64,3.312-0.64   c1.216,0,2.331,0.213,3.344,0.64c1.013,0.427,1.883,1.024,2.608,1.792c0.725,0.768,1.291,1.696,1.696,2.784   C125.032,15.179,125.235,16.384,125.235,17.707z M120.371,17.707c0-1.472-0.293-2.629-0.88-3.472   c-0.587-0.843-1.424-1.264-2.512-1.264s-1.931,0.421-2.528,1.264c-0.598,0.843-0.896,2-0.896,3.472c0,1.472,0.298,2.64,0.896,3.504   c0.597,0.864,1.44,1.296,2.528,1.296s1.925-0.432,2.512-1.296C120.078,20.347,120.371,19.179,120.371,17.707z"/>
    <path fill="#1E5BAA"
          d="M144.563,17.739c0,1.302-0.16,2.485-0.479,3.552c-0.32,1.067-0.79,1.984-1.408,2.752   c-0.619,0.768-1.388,1.365-2.304,1.792c-0.917,0.426-1.973,0.64-3.168,0.64c-0.661,0-1.28-0.064-1.856-0.192   c-0.576-0.128-1.131-0.309-1.664-0.544v6.335h-4.768V9.899c0.426-0.128,0.917-0.25,1.472-0.368   c0.555-0.117,1.136-0.218,1.744-0.304c0.608-0.085,1.227-0.154,1.856-0.208c0.629-0.053,1.232-0.08,1.808-0.08   c1.386,0,2.624,0.208,3.712,0.624s2.005,1.003,2.752,1.76c0.747,0.757,1.317,1.68,1.712,2.768S144.563,16.395,144.563,17.739z    M139.699,17.867c0-1.472-0.331-2.65-0.992-3.536c-0.662-0.885-1.643-1.328-2.944-1.328c-0.427,0-0.821,0.016-1.184,0.048   s-0.661,0.069-0.896,0.112v8.608c0.299,0.192,0.688,0.352,1.168,0.48c0.48,0.128,0.965,0.192,1.456,0.192   C138.568,22.443,139.699,20.918,139.699,17.867z"/>
    <path fill="#1E5BAA"
          d="M147.442,17.867c0-1.493,0.229-2.8,0.688-3.92c0.458-1.12,1.061-2.053,1.808-2.8s1.604-1.312,2.576-1.696   c0.97-0.384,1.968-0.576,2.991-0.576c2.39,0,4.277,0.731,5.664,2.192c1.387,1.461,2.08,3.611,2.08,6.448   c0,0.278-0.011,0.582-0.031,0.912c-0.021,0.331-0.043,0.624-0.064,0.88h-10.816c0.107,0.981,0.565,1.76,1.377,2.336   c0.811,0.576,1.898,0.864,3.264,0.864c0.875,0,1.732-0.08,2.576-0.24c0.842-0.16,1.53-0.357,2.064-0.592l0.639,3.872   c-0.256,0.128-0.597,0.256-1.023,0.384s-0.901,0.24-1.424,0.336c-0.523,0.096-1.083,0.176-1.68,0.24   c-0.598,0.064-1.195,0.096-1.793,0.096c-1.515,0-2.832-0.224-3.951-0.672c-1.12-0.448-2.049-1.061-2.784-1.84   c-0.736-0.778-1.28-1.701-1.632-2.768C147.619,20.256,147.442,19.104,147.442,17.867z M158.643,16.043   c-0.021-0.405-0.092-0.8-0.208-1.184c-0.118-0.384-0.3-0.725-0.544-1.024c-0.246-0.299-0.555-0.544-0.928-0.736   c-0.374-0.192-0.838-0.288-1.393-0.288c-0.533,0-0.992,0.091-1.376,0.272s-0.704,0.421-0.96,0.72   c-0.256,0.299-0.453,0.646-0.592,1.04c-0.139,0.395-0.24,0.795-0.305,1.2H158.643z"/>
    <path fill="#1E5BAA"
          d="M177.074,13.547c-0.427-0.106-0.928-0.219-1.504-0.336s-1.195-0.176-1.855-0.176   c-0.299,0-0.656,0.027-1.072,0.08c-0.416,0.054-0.73,0.112-0.944,0.176v12.864h-4.768V10.219c0.853-0.298,1.86-0.581,3.024-0.848   c1.162-0.266,2.458-0.4,3.887-0.4c0.257,0,0.565,0.016,0.929,0.048c0.362,0.032,0.726,0.075,1.088,0.128s0.726,0.117,1.088,0.192   s0.673,0.166,0.929,0.272L177.074,13.547z"/>
</g>
    <g>
	<g>
		<path fill="#1E5BAA"
              d="M105.909,29.488c0.896,0,1.717,0.092,2.464,0.272c0.747,0.182,1.322,0.357,1.728,0.528l-0.928,3.807    c-0.427-0.191-0.891-0.336-1.392-0.432c-0.501-0.096-0.966-0.143-1.392-0.143c-0.576,0-1.062,0.078-1.456,0.238    c-0.395,0.16-0.704,0.379-0.928,0.656c-0.224,0.277-0.384,0.609-0.48,0.992c-0.096,0.385-0.144,0.801-0.144,1.248v0.832h5.888    v3.969h-5.888V54.32h-4.768V36.594c0-2.178,0.613-3.904,1.84-5.186C101.68,30.129,103.498,29.488,105.909,29.488z"/>
        <path fill="#1E5BAA"
              d="M122.261,41.713c-0.427-0.107-0.928-0.219-1.504-0.336c-0.576-0.117-1.195-0.176-1.856-0.176    c-0.299,0-0.656,0.027-1.072,0.08s-0.731,0.111-0.944,0.176V54.32h-4.768V38.385c0.853-0.299,1.861-0.58,3.024-0.848    c1.162-0.268,2.458-0.4,3.888-0.4c0.256,0,0.565,0.016,0.928,0.049c0.362,0.031,0.725,0.074,1.088,0.127    c0.362,0.055,0.725,0.117,1.088,0.191c0.363,0.076,0.672,0.166,0.928,0.273L122.261,41.713z"/>
        <path fill="#1E5BAA"
              d="M141.365,45.873c0,1.322-0.192,2.533-0.576,3.631c-0.384,1.1-0.939,2.039-1.664,2.816    c-0.726,0.779-1.595,1.383-2.608,1.809c-1.014,0.426-2.15,0.641-3.408,0.641c-1.237,0-2.363-0.215-3.376-0.641    c-1.014-0.426-1.883-1.029-2.608-1.809c-0.726-0.777-1.291-1.717-1.696-2.816c-0.405-1.098-0.608-2.309-0.608-3.631    s0.208-2.527,0.624-3.617c0.416-1.088,0.992-2.016,1.728-2.783s1.61-1.365,2.624-1.791c1.013-0.428,2.117-0.641,3.312-0.641    c1.216,0,2.331,0.213,3.344,0.641c1.013,0.426,1.883,1.023,2.608,1.791c0.725,0.768,1.291,1.695,1.696,2.783    C141.162,43.346,141.365,44.551,141.365,45.873z M136.501,45.873c0-1.473-0.293-2.629-0.88-3.473    c-0.587-0.842-1.424-1.264-2.512-1.264s-1.931,0.422-2.528,1.264c-0.598,0.844-0.896,2-0.896,3.473s0.298,2.641,0.896,3.504    c0.597,0.863,1.44,1.295,2.528,1.295s1.925-0.432,2.512-1.295C136.208,48.514,136.501,47.346,136.501,45.873z"/>
        <path fill="#1E5BAA"
              d="M154.293,45.393c0-1.535-0.197-2.623-0.592-3.264c-0.396-0.641-1.072-0.961-2.033-0.961    c-0.299,0-0.607,0.018-0.928,0.049c-0.319,0.031-0.629,0.07-0.928,0.111V54.32h-4.768V38.064c0.404-0.105,0.88-0.219,1.424-0.336    s1.12-0.225,1.729-0.32c0.607-0.096,1.231-0.17,1.871-0.223c0.641-0.055,1.27-0.08,1.889-0.08c1.216,0,2.202,0.154,2.959,0.463    c0.758,0.311,1.382,0.678,1.873,1.104c0.682-0.49,1.467-0.873,2.352-1.15s1.701-0.416,2.448-0.416    c1.344,0,2.448,0.186,3.312,0.559c0.864,0.375,1.553,0.902,2.064,1.584c0.512,0.684,0.863,1.494,1.056,2.434    c0.192,0.938,0.288,1.982,0.288,3.135v9.504h-4.768v-8.928c0-1.535-0.197-2.623-0.592-3.264c-0.396-0.641-1.072-0.961-2.033-0.961    c-0.256,0-0.613,0.064-1.071,0.193c-0.459,0.127-0.837,0.287-1.136,0.479c0.148,0.492,0.244,1.01,0.287,1.553    c0.043,0.545,0.064,1.125,0.064,1.744v9.184h-4.768V45.393z"/>
        <path fill="#1E5BAA"
              d="M192.756,46.865c0,1.088-0.123,2.111-0.367,3.072c-0.246,0.959-0.672,1.797-1.28,2.512    s-1.43,1.279-2.464,1.695c-1.035,0.416-2.342,0.625-3.92,0.625c-1.451,0-2.699-0.176-3.744-0.529    c-1.045-0.352-1.91-0.762-2.592-1.23l1.664-3.873c0.618,0.363,1.279,0.684,1.983,0.961s1.472,0.416,2.304,0.416    c1.217,0,2.091-0.299,2.625-0.896c0.533-0.598,0.799-1.6,0.799-3.008V32.145h4.992V46.865z"/>
        <path fill="#1E5BAA"
              d="M212.98,45.873c0,1.322-0.192,2.533-0.576,3.631c-0.385,1.1-0.939,2.039-1.664,2.816    c-0.726,0.779-1.596,1.383-2.607,1.809c-1.014,0.426-2.15,0.641-3.408,0.641c-1.238,0-2.363-0.215-3.377-0.641    s-1.883-1.029-2.607-1.809c-0.726-0.777-1.291-1.717-1.696-2.816c-0.405-1.098-0.608-2.309-0.608-3.631s0.209-2.527,0.625-3.617    c0.416-1.088,0.992-2.016,1.728-2.783s1.61-1.365,2.624-1.791c1.014-0.428,2.117-0.641,3.313-0.641    c1.215,0,2.33,0.213,3.344,0.641c1.013,0.426,1.883,1.023,2.607,1.791s1.291,1.695,1.696,2.783    C212.777,43.346,212.98,44.551,212.98,45.873z M208.116,45.873c0-1.473-0.294-2.629-0.88-3.473    c-0.588-0.842-1.424-1.264-2.512-1.264s-1.932,0.422-2.528,1.264c-0.598,0.844-0.896,2-0.896,3.473s0.298,2.641,0.896,3.504    c0.597,0.863,1.44,1.295,2.528,1.295s1.924-0.432,2.512-1.295C207.822,48.514,208.116,47.346,208.116,45.873z"/>
        <path fill="#1E5BAA"
              d="M221.428,43.533c0.469-0.51,0.953-1.039,1.455-1.59c0.5-0.553,0.985-1.098,1.454-1.639    c0.47-0.541,0.911-1.055,1.327-1.543c0.415-0.488,0.771-0.912,1.07-1.273h5.67c-1.131,1.299-2.235,2.539-3.313,3.721    s-2.256,2.4-3.535,3.656c0.639,0.576,1.301,1.266,1.983,2.066c0.683,0.803,1.344,1.631,1.983,2.484    c0.641,0.855,1.227,1.711,1.76,2.564c0.533,0.855,0.982,1.635,1.345,2.34h-5.482c-0.341-0.555-0.729-1.17-1.166-1.844    s-0.899-1.348-1.39-2.021c-0.49-0.672-1.006-1.32-1.549-1.939c-0.543-0.621-1.081-1.145-1.613-1.572v7.377h-4.768V30.257    l4.768-0.769V43.533z"/>
        <path fill="#1E5BAA"
              d="M234.388,46.033c0-1.494,0.229-2.801,0.688-3.92c0.458-1.121,1.061-2.053,1.808-2.801    c0.747-0.746,1.604-1.313,2.576-1.695c0.97-0.385,1.968-0.576,2.991-0.576c2.39,0,4.277,0.73,5.664,2.191s2.08,3.611,2.08,6.449    c0,0.277-0.011,0.58-0.031,0.912c-0.021,0.33-0.043,0.623-0.064,0.879h-10.816c0.107,0.982,0.565,1.76,1.377,2.336    c0.811,0.576,1.898,0.863,3.264,0.863c0.875,0,1.732-0.078,2.576-0.238c0.842-0.16,1.53-0.357,2.064-0.594l0.639,3.873    c-0.256,0.127-0.597,0.256-1.023,0.385c-0.427,0.127-0.901,0.238-1.424,0.336c-0.523,0.096-1.083,0.176-1.68,0.238    c-0.598,0.064-1.195,0.098-1.793,0.098c-1.515,0-2.832-0.225-3.951-0.672c-1.12-0.449-2.049-1.063-2.784-1.842    c-0.736-0.777-1.28-1.699-1.632-2.768C234.564,48.422,234.388,47.27,234.388,46.033z M245.588,44.209    c-0.021-0.404-0.092-0.801-0.208-1.184c-0.118-0.385-0.3-0.727-0.544-1.025c-0.246-0.297-0.555-0.543-0.928-0.734    c-0.374-0.193-0.838-0.289-1.393-0.289c-0.533,0-0.992,0.092-1.376,0.271c-0.384,0.182-0.704,0.422-0.96,0.721    s-0.453,0.646-0.592,1.041s-0.24,0.795-0.305,1.199H245.588z"/>
        <path fill="#1E5BAA"
              d="M260.596,54.641c-1.387-0.021-2.512-0.17-3.376-0.447s-1.547-0.668-2.048-1.168    c-0.502-0.502-0.844-1.109-1.023-1.824c-0.182-0.715-0.272-1.52-0.272-2.416V30.257l4.768-0.769v18.336    c0,0.428,0.032,0.813,0.097,1.152c0.063,0.342,0.186,0.629,0.367,0.863c0.182,0.236,0.443,0.428,0.784,0.576    c0.341,0.15,0.8,0.246,1.376,0.289L260.596,54.641z"/>
        <path fill="#1E5BAA"
              d="M270.035,37.041c1.408,0,2.582,0.16,3.521,0.48c0.938,0.318,1.69,0.777,2.256,1.375s0.965,1.324,1.2,2.176    c0.234,0.854,0.352,1.803,0.352,2.848v9.92c-0.683,0.15-1.632,0.326-2.848,0.529c-1.217,0.203-2.688,0.303-4.416,0.303    c-1.088,0-2.075-0.096-2.96-0.287c-0.886-0.191-1.647-0.506-2.288-0.943s-1.131-1.008-1.473-1.713    c-0.341-0.703-0.512-1.568-0.512-2.592c0-0.98,0.197-1.813,0.592-2.496c0.395-0.682,0.923-1.227,1.584-1.631    c0.662-0.406,1.419-0.699,2.272-0.881c0.853-0.182,1.739-0.271,2.656-0.271c0.618,0,1.168,0.027,1.647,0.08    c0.48,0.053,0.869,0.123,1.168,0.207v-0.447c0-0.811-0.245-1.461-0.735-1.953c-0.491-0.49-1.345-0.734-2.56-0.734    c-0.812,0-1.611,0.059-2.4,0.176s-1.473,0.283-2.049,0.496l-0.607-3.842c0.277-0.084,0.624-0.176,1.04-0.271    s0.869-0.18,1.36-0.256c0.49-0.074,1.008-0.139,1.552-0.191S269.48,37.041,270.035,37.041z M270.42,50.992    c0.469,0,0.916-0.01,1.344-0.031c0.426-0.021,0.768-0.053,1.023-0.096v-3.617c-0.191-0.041-0.479-0.084-0.863-0.127    c-0.385-0.043-0.736-0.064-1.057-0.064c-0.447,0-0.869,0.027-1.264,0.08s-0.742,0.154-1.04,0.305    c-0.299,0.148-0.533,0.352-0.704,0.607s-0.256,0.576-0.256,0.961c0,0.746,0.25,1.264,0.752,1.551    C268.856,50.85,269.545,50.992,270.42,50.992z"/>
	</g>
</g>
</svg>