<svg
    xmlns="http://www.w3.org/2000/svg"
    viewBox="0 0 500 500"
    id="vector">
    <path
        id="path"
        d="M 58.835 242.931 C 58.835 203.15 64.6 168.414 76.131 138.722 C 87.662 109.03 102.94 84.383 121.966 64.781 C 140.992 45.178 162.9 30.477 187.691 20.676 C 212.482 10.874 237.85 5.974 263.794 5.974 C 324.331 5.974 370.742 24.855 403.029 62.619 C 435.315 100.382 451.458 157.892 451.458 235.148 C 451.458 238.607 451.458 243.075 451.458 248.552 C 451.458 254.03 451.17 259.074 450.593 263.687 L 142.721 263.687 C 146.18 310.386 159.729 345.843 183.367 370.058 C 207.005 394.273 243.904 406.38 294.063 406.38 C 322.313 406.38 346.095 403.93 365.409 399.029 C 384.723 394.129 399.281 389.372 409.082 384.76 L 420.325 452.215 C 410.524 457.404 393.371 462.881 368.868 468.646 C 344.366 474.412 316.548 477.294 285.415 477.294 C 246.21 477.294 212.338 471.385 183.8 459.566 C 155.261 447.747 131.767 431.459 113.318 410.704 C 94.868 389.949 81.176 365.301 72.239 336.763 C 63.303 308.224 58.835 276.947 58.835 242.931 M 367.571 198.826 C 368.148 162.504 359.067 132.668 340.33 109.318 C 321.592 85.969 295.792 74.294 262.93 74.294 C 244.48 74.294 228.193 77.897 214.068 85.104 C 199.943 92.31 187.98 101.679 178.178 113.21 C 168.377 124.741 160.738 138.001 155.261 152.991 C 149.784 167.981 146.18 183.26 144.451 198.826 L 367.571 198.826 Z"
        fill="#ffffff"/>
</svg>
