<svg
    xmlns="http://www.w3.org/2000/svg"
    viewBox="0 0 24 24"
    id="vector">
    <path
        id="path_1"
        d="M 5 5 L 7 5 L 7 7 L 5 7 L 5 5 Z M 1 1 L 11 1 L 11 11 L 1 11 L 1 1 Z M 3 3 L 3 9 L 9 9 L 9 3 L 3 3 Z M 5 17 L 7 17 L 7 19 L 5 19 L 5 17 Z M 1 13 L 11 13 L 11 23 L 1 23 L 1 13 Z M 3 15 L 3 21 L 9 21 L 9 15 L 3 15 Z M 17 5 L 19 5 L 19 7 L 17 7 L 17 5 Z M 13 1 L 23 1 L 23 11 L 13 11 L 13 1 Z M 15 3 L 15 9 L 21 9 L 21 3 L 15 3 Z M 13 13 L 17 13 L 17 15 L 19 15 L 19 13 L 23 13 L 23 15 L 19 15 L 19 17 L 23 17 L 23 23 L 19 23 L 19 21 L 15 21 L 15 23 L 13 23 L 13 21 L 15 21 L 15 19 L 13 19 L 13 13 Z M 21 21 L 21 19 L 19 19 L 19 21 L 21 21 Z M 19 17 L 17 17 L 17 15 L 15 15 L 15 19 L 19 19 L 19 17 Z"
        fill="#fff"
        stroke-width="1"/>
</svg>
